<?xml version="1.0" standalone="no"?>
<!DOCTYPE svg PUBLIC "-//W3C//DTD SVG 20010904//EN"
 "http://www.w3.org/TR/2001/REC-SVG-20010904/DTD/svg10.dtd">
<svg version="1.0" xmlns="http://www.w3.org/2000/svg"
 width="400.000000pt" height="400.000000pt" viewBox="0 0 400.000000 400.000000"
 preserveAspectRatio="xMidYMid meet">
<metadata>
Created by potrace 1.11, written by Peter Selinger 2001-2013
</metadata>
<g transform="translate(0.000000,400.000000) scale(0.100000,-0.100000)"
fill="#000000" stroke="none">
<path d="M2624 3991 c-3 -3 -121 -6 -262 -7 -141 -1 -257 -3 -257 -4 0 -1
-106 -4 -235 -6 -248 -3 -559 -10 -875 -17 -190 -5 -190 -5 -305 -44 -63 -22
-122 -41 -130 -44 -8 -2 -21 -10 -28 -17 -8 -7 -18 -10 -23 -7 -5 4 -9 2 -9
-3 0 -5 -13 -15 -29 -22 -16 -6 -47 -27 -68 -46 -21 -19 -41 -34 -45 -34 -4 0
-24 -17 -44 -37 -20 -21 -41 -37 -46 -35 -5 1 -7 -1 -4 -6 6 -11 -30 -43 -39
-34 -4 4 -5 2 -3 -5 3 -12 -15 -42 -50 -81 -20 -23 -26 -36 -23 -54 0 -4 -8
-12 -19 -18 -11 -6 -18 -15 -15 -21 4 -5 1 -9 -4 -9 -6 0 -10 -3 -10 -7 1 -5
0 -11 -1 -15 -1 -5 -3 -11 -4 -15 -1 -5 -7 -18 -14 -29 -6 -12 -8 -24 -5 -28
3 -3 1 -6 -6 -6 -7 0 -10 -4 -7 -9 3 -5 -1 -12 -10 -15 -13 -5 -14 -9 -4 -21
8 -10 9 -15 2 -15 -7 0 -9 -7 -5 -17 4 -10 2 -14 -5 -9 -7 4 -10 -1 -7 -14 2
-11 0 -20 -5 -20 -4 0 -7 -19 -6 -42 1 -24 -3 -49 -8 -57 -8 -11 -8 -13 1 -7
9 5 11 2 7 -8 -3 -9 -11 -16 -16 -16 -6 0 -5 -6 2 -15 8 -10 9 -19 3 -27 -11
-16 -11 -1027 0 -1045 5 -8 3 -13 -4 -13 -10 0 -10 -3 -1 -12 16 -16 15 -31 0
-22 -9 5 -9 2 1 -9 11 -14 11 -17 0 -17 -10 0 -10 -3 -1 -12 14 -14 16 -32 4
-24 -10 6 -9 -30 1 -40 12 -12 8 -26 -5 -18 -9 5 -9 2 1 -9 11 -14 11 -17 0
-17 -10 0 -10 -3 -1 -12 15 -15 16 -32 1 -22 -8 5 -8 1 0 -14 8 -15 8 -22 -2
-25 -9 -4 -9 -6 1 -6 6 -1 12 -6 12 -12 0 -5 -6 -7 -12 -3 -9 5 -9 2 1 -9 11
-14 11 -17 0 -17 -10 0 -10 -3 -1 -12 15 -15 16 -32 1 -22 -8 5 -8 1 0 -14 8
-15 8 -22 -2 -25 -9 -4 -9 -6 1 -6 6 -1 12 -6 12 -12 0 -5 -6 -7 -12 -3 -9 5
-9 2 1 -9 11 -14 11 -17 0 -17 -10 0 -10 -3 -1 -12 15 -15 16 -32 1 -22 -8 5
-8 1 0 -14 8 -15 8 -22 -2 -25 -9 -4 -9 -6 1 -6 6 -1 12 -6 12 -12 0 -5 -5 -7
-11 -3 -8 5 -8 1 0 -14 8 -15 8 -22 -2 -25 -9 -4 -9 -6 1 -6 6 -1 12 -6 12
-12 0 -5 -5 -7 -11 -3 -8 5 -8 1 0 -14 14 -27 14 -35 -1 -26 -9 5 -9 2 1 -9
10 -13 10 -17 1 -17 -10 0 -10 -3 -1 -14 9 -11 9 -15 -1 -19 -10 -4 -10 -6 0
-6 6 -1 12 -6 12 -12 0 -5 -5 -7 -11 -3 -8 5 -8 1 0 -14 14 -27 14 -35 -1 -26
-9 5 -9 2 1 -9 11 -14 11 -17 0 -17 -10 0 -10 -3 -1 -12 14 -14 16 -32 4 -24
-10 6 -9 -30 1 -40 10 -10 9 -26 -1 -20 -7 4 -8 -27 -2 -44 1 -3 1 -13 0 -23
-1 -10 4 -24 10 -32 8 -10 8 -19 0 -34 -8 -15 -8 -21 0 -21 6 0 8 -5 4 -12
-10 -17 -13 -48 -3 -43 11 7 18 -20 9 -35 -11 -18 -1 -42 14 -33 6 4 5 -1 -3
-10 -11 -14 -11 -17 0 -17 11 0 11 -2 -1 -10 -13 -9 -13 -10 0 -10 13 0 13 -1
0 -10 -13 -9 -13 -10 0 -10 13 0 13 -1 0 -10 -10 -6 -11 -10 -2 -10 13 0 17
-36 5 -43 -5 -2 -3 -2 4 -1 6 2 14 -4 17 -12 3 -9 1 -12 -4 -9 -6 3 -10 1 -10
-4 0 -6 8 -11 18 -11 14 0 15 -2 2 -10 -12 -8 -12 -10 -1 -10 10 0 11 -3 2
-14 -9 -11 -9 -16 0 -22 8 -5 9 -3 4 6 -5 9 -4 11 3 6 7 -4 12 -18 12 -32 0
-13 5 -24 11 -24 7 0 10 -12 7 -29 -2 -17 -2 -30 1 -29 21 2 30 -4 25 -17 -4
-8 -1 -15 5 -15 6 0 11 -9 11 -19 0 -10 7 -22 16 -25 8 -3 12 -10 9 -16 -3 -5
-1 -10 4 -10 6 0 11 -7 11 -16 0 -8 4 -13 9 -10 5 4 15 -7 23 -24 7 -16 19
-30 25 -30 7 0 12 -3 12 -8 -3 -20 2 -32 16 -32 14 0 19 -12 16 -32 0 -5 5 -7
12 -5 6 1 11 -4 9 -12 -2 -9 3 -11 14 -7 12 5 15 2 10 -9 -3 -9 -2 -13 4 -10
6 3 10 1 10 -5 0 -7 6 -10 13 -7 15 5 59 -27 50 -37 -4 -3 -1 -6 5 -6 6 0 23
-11 37 -25 14 -15 25 -20 25 -13 1 7 7 2 14 -11 10 -18 15 -20 19 -10 4 10 6
10 6 2 1 -7 7 -13 15 -13 8 0 17 -6 19 -12 4 -10 6 -9 6 1 1 9 8 6 21 -9 11
-13 20 -18 20 -11 0 7 5 9 10 6 6 -4 7 -11 4 -17 -5 -7 -1 -9 9 -5 10 3 17 3
17 -2 0 -5 11 -7 25 -6 14 2 25 -1 25 -6 0 -6 4 -7 10 -4 5 3 10 2 10 -2 0 -5
16 -10 36 -11 20 -2 46 -8 58 -15 22 -12 206 -17 206 -5 0 4 13 3 30 -2 16 -5
30 -6 30 -2 0 4 40 5 90 2 50 -3 90 -2 90 2 0 4 14 3 30 -2 20 -6 30 -5 30 2
0 6 6 6 15 -2 12 -10 15 -10 15 1 0 12 2 12 9 0 5 -8 11 -9 15 -3 4 6 15 9 26
7 11 -2 22 1 26 6 3 6 12 3 21 -8 8 -10 12 -13 9 -7 -7 14 50 24 63 11 5 -5
17 -5 29 2 10 6 22 8 25 5 8 -8 216 -9 224 -1 3 4 12 2 20 -4 9 -8 17 -8 26
-1 7 6 97 10 232 10 121 0 227 2 235 5 8 3 29 4 45 3 17 -2 36 1 43 7 8 6 12
6 12 -1 0 -12 33 -10 42 3 5 6 8 6 8 -2 0 -7 9 -10 23 -7 25 6 27 6 85 2 24
-2 42 1 42 7 0 7 3 6 8 -1 9 -13 55 -13 65 0 5 8 9 8 15 1 8 -11 83 -15 76 -4
-2 4 61 6 141 5 91 -1 145 3 145 9 0 7 3 7 8 0 8 -11 28 -11 125 0 37 4 67 12
67 17 0 5 9 6 20 3 11 -3 20 -2 20 4 0 5 8 10 18 10 38 1 52 5 52 13 0 4 5 8
12 8 22 0 197 93 228 121 17 16 34 29 37 29 10 0 183 181 183 192 0 5 11 24
24 41 25 32 86 155 90 179 1 7 5 19 10 26 4 7 6 16 3 18 -3 3 2 22 10 42 9 20
17 57 19 82 3 49 7 69 15 85 3 6 4 46 2 90 -4 111 -13 421 -17 600 -2 83 -5
150 -6 150 -2 0 -5 101 -14 465 -2 80 -4 147 -6 150 -1 3 -3 70 -5 150 -6 247
-12 465 -14 470 -2 3 -3 44 -3 93 -1 48 -5 90 -9 93 -5 3 -9 18 -9 34 0 16 -4
31 -10 35 -5 3 -7 11 -4 18 6 17 -56 183 -90 241 -14 24 -42 65 -61 90 -19 25
-35 49 -35 51 0 13 -168 165 -182 165 -5 0 -18 9 -30 20 -44 40 -225 120 -291
127 -22 2 -51 9 -65 15 -27 12 -508 19 -518 9z m-661 -790 c-2 -6 4 -11 13
-11 11 0 15 -6 11 -19 -4 -15 -1 -18 12 -13 14 5 14 4 1 -13 -14 -17 -13 -18
2 -12 13 5 19 0 24 -18 4 -15 11 -22 18 -18 6 4 4 -2 -4 -13 -8 -10 -10 -16
-6 -12 11 10 39 -28 31 -41 -3 -5 0 -13 6 -17 8 -5 10 -2 5 7 -4 8 -1 5 8 -5
8 -10 13 -23 10 -27 -3 -5 0 -9 5 -9 6 0 11 -4 11 -9 0 -6 -8 -10 -17 -10 -10
0 -75 -1 -145 -2 -71 -1 -131 1 -135 4 -6 6 34 96 48 107 4 3 21 33 38 68 17
34 36 62 42 62 5 0 7 5 3 11 -4 7 -1 10 7 7 8 -3 13 -11 12 -17z m785 -400
c22 -19 28 -31 15 -31 -8 1 -47 50 -40 50 2 0 14 -8 25 -19z m298 7 c5 -7 3
-8 -6 -3 -9 5 -11 4 -6 -3 4 -7 15 -12 24 -12 13 0 14 -2 4 -9 -8 -4 -14 -12
-14 -17 -1 -15 -35 -54 -42 -47 -3 3 -6 1 -6 -6 0 -6 -11 -24 -25 -39 -24 -26
-36 -80 -15 -67 9 6 14 -8 11 -27 0 -5 2 -7 7 -6 12 4 52 -26 52 -38 0 -6 10
-16 23 -22 14 -7 16 -11 7 -11 -13 -1 -13 -2 0 -12 13 -9 13 -10 0 -6 -8 2
-14 10 -12 16 1 6 -3 11 -9 11 -15 0 -39 26 -32 34 4 3 -4 6 -16 6 -12 0 -24
7 -28 16 -9 24 -45 34 -63 18 -38 -36 -86 -74 -93 -74 -5 0 -6 -4 -3 -9 6 -9
-14 -21 -44 -27 -9 -2 -21 6 -28 17 -16 25 -8 39 66 116 27 29 47 54 45 57 -3
2 -6 11 -7 20 -1 9 -17 29 -36 46 -26 23 -31 33 -22 42 9 9 12 8 12 -6 0 -10
4 -14 12 -10 6 4 8 3 4 -4 -3 -6 3 -13 14 -17 11 -3 20 -10 20 -15 0 -4 8 -10
19 -13 13 -3 36 12 77 52 58 55 96 72 110 49z m-1950 -28 c3 0 2 5 -2 11 -3 6
5 4 18 -5 14 -9 28 -13 31 -9 4 3 7 -2 7 -13 0 -16 2 -17 10 -4 8 12 10 10 10
-8 0 -13 4 -20 10 -17 6 3 10 -1 10 -9 0 -9 6 -16 13 -16 8 0 7 -4 -3 -10 -12
-8 -12 -10 -1 -10 11 0 11 -3 0 -17 -10 -11 -10 -14 -2 -9 16 9 13 -35 -2 -46
-6 -5 -5 -8 4 -8 11 0 11 -3 0 -17 -8 -10 -9 -14 -2 -10 7 5 6 -4 -3 -23 -9
-17 -20 -28 -25 -24 -5 3 -9 2 -8 -3 1 -4 1 -17 0 -28 -1 -17 -3 -18 -11 -5
-8 13 -10 12 -10 -2 0 -10 -6 -18 -14 -18 -8 0 -16 -5 -18 -11 -5 -15 -99 -38
-131 -32 -32 6 -78 48 -97 88 -20 44 -19 114 2 158 21 41 76 99 88 92 5 -3 10
0 12 5 2 6 20 12 41 13 20 1 37 6 37 10 0 5 7 1 16 -7 8 -9 18 -16 20 -16z
m929 -53 c-4 9 -1 11 9 7 9 -3 13 -11 9 -17 -4 -6 0 -8 10 -4 11 4 17 1 17 -8
0 -8 6 -15 14 -15 8 0 18 -9 21 -20 3 -11 11 -20 17 -20 6 0 6 6 -2 15 -11 13
-10 14 3 9 9 -3 19 -14 22 -25 4 -11 10 -17 15 -14 4 3 11 -2 14 -11 4 -9 13
-14 21 -10 10 4 15 -1 15 -14 0 -11 3 -19 8 -19 21 4 32 -3 32 -18 0 -15 2
-16 10 -3 6 10 10 11 10 3 0 -7 7 -13 16 -13 8 0 12 -4 9 -10 -3 -5 -1 -10 5
-10 6 0 8 -4 5 -10 -4 -6 1 -7 11 -3 11 4 23 -2 36 -18 11 -13 17 -17 13 -9
-4 8 0 6 9 -4 8 -10 13 -23 9 -29 -3 -6 -1 -7 6 -3 6 4 8 13 5 19 -4 7 8 -4
27 -24 19 -19 27 -26 19 -15 -11 14 -11 17 -2 12 8 -5 23 -22 34 -40 11 -17
17 -22 14 -11 -6 19 -5 18 13 -2 10 -12 21 -19 25 -16 3 4 6 -2 7 -13 0 -10 3
-14 6 -7 3 10 7 10 18 0 9 -9 10 -14 1 -19 -6 -4 1 -8 17 -8 19 0 26 -4 21
-12 -5 -8 -2 -9 9 -5 9 3 19 1 23 -5 5 -7 2 -8 -6 -3 -9 5 -11 4 -6 -3 4 -7
16 -12 27 -12 11 0 19 -7 19 -16 0 -8 4 -13 9 -9 6 3 15 -4 21 -15 6 -11 20
-20 32 -20 12 0 19 -3 15 -6 -9 -9 19 -34 37 -34 9 0 16 -4 16 -10 0 -5 6 -10
14 -10 8 0 17 -7 20 -16 3 -8 10 -12 16 -9 5 3 10 -1 10 -10 0 -9 4 -14 8 -11
15 9 31 -29 18 -44 -14 -19 2 -18 -336 -25 -157 -3 -332 -8 -390 -10 -58 -3
-222 -7 -365 -10 -143 -2 -339 -7 -436 -11 -173 -6 -176 -6 -182 15 -3 14 4
30 23 51 15 16 31 30 35 30 3 0 12 6 19 13 8 6 28 23 45 37 17 14 43 36 59 50
15 14 42 36 60 50 18 14 43 33 55 44 12 10 42 35 67 55 25 20 47 38 50 41 3 3
25 21 50 40 25 19 47 38 48 42 2 5 7 8 12 8 4 0 25 16 46 35 92 81 248 204
256 199 4 -3 8 0 8 7 0 7 7 4 16 -7 8 -10 13 -13 9 -7z m549 -758 c4 5 19 8
34 5 41 -7 54 -13 48 -23 -3 -5 1 -12 9 -15 12 -4 13 -10 6 -25 -6 -10 -7 -21
-4 -25 3 -3 -1 -6 -11 -6 -9 0 -15 -4 -12 -9 3 -5 -1 -12 -10 -15 -8 -3 -13
-10 -10 -15 4 -5 0 -12 -6 -15 -10 -5 -10 -7 1 -12 11 -5 11 -8 0 -15 -10 -6
-11 -9 -1 -9 6 0 12 -5 12 -11 0 -5 -5 -7 -12 -3 -7 4 -8 3 -4 -5 11 -18 16
-72 6 -66 -10 6 -7 -21 3 -31 4 -4 2 -13 -4 -20 -7 -8 -6 -14 2 -20 8 -5 9 -3
4 6 -6 9 -4 11 5 5 10 -6 9 -11 -5 -22 -11 -7 -13 -13 -6 -13 7 0 9 -4 6 -10
-3 -5 -1 -10 5 -10 6 0 8 -5 5 -10 -4 -6 -12 -7 -18 -3 -9 5 -9 3 -1 -8 6 -8
14 -23 18 -33 5 -16 4 -17 -9 -6 -20 16 -19 6 1 -14 8 -9 10 -16 4 -16 -7 0
-8 -6 -2 -17 4 -10 8 -34 7 -53 -1 -34 13 -60 34 -60 16 0 23 -18 10 -26 -8
-5 -10 -2 -5 7 5 10 4 9 -6 -1 -10 -12 -43 -16 -153 -18 l-140 -3 32 20 33 21
-5 187 c-8 267 -10 285 -46 319 -32 31 -35 42 -16 68 11 15 31 20 87 23 41 2
76 6 78 8 3 3 11 0 18 -6 8 -6 14 -6 18 0z m-425 -15 c6 4 14 0 17 -8 3 -9 10
-14 14 -11 18 11 6 -52 -13 -73 -16 -17 -22 -37 -23 -73 0 -27 -3 -52 -7 -55
-3 -4 -2 -16 4 -27 7 -12 7 -17 1 -13 -11 7 -11 -12 0 -29 4 -6 3 -17 -2 -25
-5 -9 -4 -20 2 -28 9 -10 9 -18 0 -33 -9 -14 -9 -19 -1 -19 8 0 8 -5 -1 -15
-10 -12 -10 -15 0 -15 7 0 10 -7 6 -15 -3 -8 -9 -23 -12 -32 -5 -15 -4 -16 5
-3 9 12 11 10 8 -10 -1 -14 -6 -31 -11 -39 -6 -10 -5 -12 2 -7 8 5 12 -2 13
-18 2 -35 3 -38 16 -61 7 -11 13 -15 13 -9 0 5 -6 16 -12 23 -10 11 -10 12 -1
7 7 -4 18 -17 24 -29 7 -12 9 -19 5 -15 -4 3 -21 2 -37 -2 -17 -5 -29 -5 -29
0 0 5 -6 7 -12 5 -21 -7 -199 -14 -214 -8 -18 7 -18 23 1 23 23 0 27 54 21
282 -6 208 -6 213 -29 233 -28 23 -40 52 -26 60 5 4 7 10 4 15 -7 11 17 19 49
16 14 -2 26 0 26 3 0 4 38 7 85 6 55 -1 85 2 85 9 0 6 4 5 9 -3 5 -7 14 -10
20 -7z m-724 -25 c-4 -6 3 -5 14 3 18 11 23 11 31 -2 5 -8 10 -10 10 -4 0 13
195 13 207 0 5 -5 2 -6 -6 -1 -9 5 -12 4 -7 -3 4 -7 15 -12 24 -12 14 0 15 -2
2 -10 -8 -5 -11 -12 -8 -16 4 -4 -7 -20 -23 -35 -17 -16 -28 -29 -25 -29 4 0
2 -9 -4 -19 -7 -13 -7 -22 0 -26 5 -3 10 -11 10 -16 0 -6 -6 -7 -12 -3 -9 5
-9 2 1 -9 11 -14 11 -17 0 -18 -11 0 -11 -2 -1 -6 10 -4 10 -8 0 -21 -10 -12
-10 -14 0 -8 7 4 12 1 12 -9 0 -10 -5 -13 -12 -9 -10 6 -10 4 0 -8 9 -11 10
-18 2 -23 -6 -3 -7 -12 -3 -18 11 -18 11 -47 -1 -47 -6 0 -5 -5 2 -12 16 -16
15 -31 0 -22 -10 6 -10 4 0 -7 6 -7 12 -17 12 -22 0 -4 -6 -5 -12 -1 -9 5 -9
2 1 -9 11 -14 11 -17 0 -17 -9 0 -10 -3 -4 -8 14 -10 15 -56 1 -64 -8 -5 -7
-8 3 -8 11 0 11 -3 0 -17 -12 -14 -12 -16 0 -8 11 6 13 4 8 -8 -3 -8 1 -21 8
-27 8 -7 12 -16 9 -21 -3 -5 2 -6 10 -3 9 3 16 1 16 -5 0 -6 -8 -11 -17 -11
-10 0 -72 -3 -139 -7 -93 -4 -123 -3 -129 7 -5 9 1 20 19 33 l27 20 -2 216
c-1 125 -6 224 -12 236 -6 11 -20 27 -32 37 -25 20 -27 46 -5 70 17 19 35 24
25 7z m1709 -161 c-5 -7 -3 -8 6 -3 20 13 131 8 144 -6 8 -9 8 -10 -1 -5 -9 5
-11 2 -7 -8 3 -9 10 -14 15 -11 4 3 13 -5 20 -17 10 -20 10 -22 -2 -13 -8 6
-7 3 3 -7 10 -9 18 -24 18 -33 0 -9 4 -13 10 -10 6 3 7 -1 4 -9 -4 -9 -1 -16
6 -16 10 0 10 -3 0 -15 -11 -13 -10 -14 4 -9 11 4 16 1 16 -10 0 -9 5 -16 10
-16 6 0 10 -9 10 -21 0 -13 -4 -18 -12 -13 -9 5 -9 2 1 -9 11 -14 11 -17 0
-17 -11 0 -11 -2 1 -10 10 -6 11 -10 3 -10 -7 0 -13 -7 -13 -15 0 -8 -5 -15
-11 -15 -5 0 -8 -4 -4 -9 3 -5 1 -12 -5 -16 -6 -4 -8 -10 -5 -15 3 -5 -1 -15
-9 -23 -8 -8 -12 -17 -9 -21 4 -3 1 -6 -6 -6 -7 0 -10 -4 -6 -9 3 -6 -5 -20
-17 -32 -13 -12 -16 -19 -8 -15 11 6 11 4 -1 -6 -10 -8 -50 -14 -107 -16 l-90
-3 -17 33 c-10 18 -31 60 -47 93 -17 33 -34 62 -37 65 -11 9 -11 29 1 57 6 15
12 30 12 33 5 22 83 167 98 182 20 20 43 25 32 6z m-2464 -73 c0 -6 3 -5 8 1
9 15 92 15 111 0 11 -8 13 -8 8 1 -5 8 14 11 72 10 69 -2 78 -4 76 -20 -2 -9
-6 -21 -9 -26 -4 -5 0 -11 6 -14 10 -3 10 -9 1 -24 -9 -16 -9 -23 0 -32 9 -9
8 -16 -1 -31 -7 -11 -8 -20 -3 -20 10 0 7 -32 -5 -52 -4 -7 -3 -8 4 -4 16 9
15 -7 0 -22 -9 -9 -9 -12 1 -12 11 0 11 -3 0 -17 -10 -12 -11 -15 -1 -9 13 8
12 -15 -3 -59 -6 -16 -5 -17 4 -5 9 13 11 13 11 -1 0 -9 -8 -20 -17 -24 -21
-8 -297 -10 -310 -2 -4 3 -8 53 -8 112 0 59 -2 108 -5 110 -7 4 -4 97 4 129 5
20 12 25 31 24 14 -1 25 -7 25 -13z m1585 -482 c11 1 23 7 27 12 5 7 8 6 8 0
0 -12 64 -14 76 -3 4 4 13 3 21 -3 10 -9 17 -8 28 1 8 7 15 8 15 3 0 -5 16 -9
35 -9 19 1 35 5 35 9 0 9 46 4 56 -6 4 -4 14 -2 21 5 11 9 19 9 35 -1 11 -7
17 -8 14 -3 -4 6 23 9 68 9 41 -1 72 -5 70 -9 -3 -4 -1 -8 3 -8 5 0 14 -10 22
-22 13 -21 13 -22 -2 -9 -10 7 -17 9 -17 4 0 -5 12 -15 26 -21 15 -7 22 -17
18 -24 -5 -8 -2 -9 11 -4 11 4 22 2 27 -6 6 -10 8 -10 8 1 0 11 5 9 22 -5 12
-10 18 -13 14 -6 -4 7 -1 12 9 12 9 0 13 -4 10 -10 -3 -5 0 -10 7 -11 10 0 10
-2 0 -6 -6 -2 -10 -8 -8 -12 3 -4 0 -8 -7 -8 -7 0 -109 -4 -227 -7 -118 -4
-276 -9 -350 -11 -338 -11 -510 -16 -705 -21 -115 -3 -244 -7 -285 -8 -41 -1
-79 0 -85 3 -5 3 -23 6 -40 7 -16 1 -33 2 -37 3 -15 2 -8 21 13 32 17 9 23 8
30 -2 7 -12 9 -12 9 -1 0 8 5 12 12 10 19 -7 76 51 84 84 4 20 9 26 14 18 6
-9 9 -9 15 0 6 9 10 9 16 -1 5 -8 9 -9 9 -4 0 6 19 10 43 10 23 0 48 4 55 9 7
5 12 4 12 -2 0 -11 18 -11 37 1 6 4 14 3 18 -2 3 -6 11 -8 18 -5 24 9 92 10
115 2 13 -4 21 -4 18 1 -8 13 148 11 156 -3 6 -8 8 -8 8 0 0 10 32 12 288 18
40 0 72 5 72 11 0 6 4 5 8 -2 4 -6 16 -11 27 -10z"/>
<path d="M1975 2513 c-47 -32 -71 -51 -104 -83 -15 -14 -43 -37 -63 -52 -20
-15 -42 -33 -50 -40 -7 -7 -30 -26 -51 -42 -28 -20 -37 -34 -34 -47 3 -13 1
-17 -6 -12 -8 4 -8 2 0 -9 10 -11 27 -14 64 -11 35 2 48 0 43 -8 -4 -8 0 -8
15 0 11 7 21 8 21 4 0 -4 5 -1 10 7 6 10 10 11 10 3 0 -13 26 -13 48 0 6 5 12
4 12 -2 0 -9 44 -6 62 5 4 3 8 0 8 -6 0 -6 5 -8 12 -4 17 11 59 14 54 5 -3 -4
1 -8 9 -8 8 0 15 4 15 8 0 9 20 6 39 -5 10 -6 12 -5 7 3 -5 8 7 10 43 7 34 -3
49 -1 45 6 -4 6 1 6 13 -1 11 -6 23 -8 26 -5 3 4 30 7 60 8 38 1 61 7 76 20
25 23 20 31 -52 80 -91 61 -222 157 -232 169 -5 7 -22 17 -36 24 -23 10 -32 8
-64 -14z"/>
<path d="M370 216 c0 -2 8 -10 18 -17 15 -13 16 -12 3 4 -13 16 -21 21 -21 13z"/>
</g>
</svg>
